<svg 
  xmlns="http://www.w3.org/2000/svg" 
  viewBox="0 0 32 32" 
  width="56" 
  height="56"><defs data-reactroot=""></defs><g><path d="M28.512 14.432c0.8-0.032 1.504-0.768 1.472-1.568 0-0.832-0.672-1.504-1.536-1.504-0.48 0-0.992-0.032-1.472 0-0.288 0-0.416-0.096-0.512-0.352-0.609-1.492-1.039-2.451-1.487-3.399l0.207 0.487c-0.384-0.864-1.056-1.28-1.984-1.28-4.768-0.032-9.536 0-14.304-0.032-1.056 0-1.76 0.48-2.176 1.44-0.384 0.96-0.8 1.888-1.216 2.848-0.096 0.224-0.192 0.288-0.448 0.288-0.48-0.032-0.96 0-1.472 0-0.896 0-1.568 0.64-1.6 1.504 0 0.864 0.704 1.568 1.632 1.568h0.576c-0.096 0.256-0.16 0.448-0.224 0.672-0.224 0.896-0.576 1.792-0.608 2.72-0.096 2.88-0.096 5.76-0.096 8.64 0 1.024 0.672 1.824 1.664 1.952 0.242 0.029 0.521 0.045 0.805 0.045 0.371 0 0.735-0.028 1.091-0.082l-0.040 0.005c0.928-0.096 1.696-0.704 1.6-1.888-0.032-0.384 0-0.768 0-1.152h15.2v1.248c0 0.96 0.48 1.6 1.44 1.76 0.48 0.096 0.992 0.064 1.504 0.064 1.408 0.032 2.176-0.736 2.176-2.176 0-2.336 0.032-4.704 0-7.072 0-1.248-0.128-2.528-0.608-3.712-0.096-0.32-0.192-0.64-0.32-1.024h0.736zM6.816 20.768c-0.896 0.032-1.6-0.672-1.6-1.568s0.672-1.568 1.568-1.568c0.896-0.032 1.568 0.672 1.568 1.568 0 0.864-0.672 1.568-1.536 1.568zM7.040 14.4c0.128-0.512 0.288-0.96 0.416-1.408 0.384-1.28 0.768-2.528 1.12-3.808 0.096-0.256 0.192-0.384 0.512-0.384 4.608 0.032 9.216 0 13.856 0 0.192 0 0.352 0 0.448 0.288l1.536 5.184c0.032 0.032 0 0.064 0 0.128h-17.888zM25.216 20.768c-0.864 0-1.568-0.704-1.568-1.6 0-0.864 0.672-1.568 1.536-1.568 0.896 0 1.6 0.704 1.6 1.568 0 0.896-0.672 1.6-1.568 1.6zM21.088 6.080h-0.672l-0.032-0.864h-0.928v0.864h-0.896v-0.864h-0.928v0.864h-0.864v-0.864h-1.088v0.864h-0.864v-0.864h-0.928v0.864h-0.896v-0.864h-0.928c0 0.288 0 0.576-0.032 0.864h-0.64c-0.032 0.224-0.032 0.48-0.032 0.704h9.728v-0.704zM12.064 4.288h0.928v0.928h0.896v-0.928h0.96v0.928h0.832v-0.928h1.088v0.928h0.864v-0.928h0.928v0.928h0.896v-0.928h0.96v0.928h0.672c0-0.128 0-0.256-0.032-0.384-0.096-0.768-0.672-1.248-1.472-1.248-0.995-0.015-2.168-0.024-3.344-0.024s-2.35 0.009-3.521 0.026l0.177-0.002c-0.672 0-1.312 0.48-1.408 1.12-0.032 0.16-0.032 0.352-0.064 0.512h0.64v-0.928z"></path></g></svg>